# AST/ASF file generated using VICON BodyLanguage
# -----------------------------------------------
:version 1.10
:name VICON
:units
  mass 1.0
  length 0.45
  angle deg
:documentation
   .ast/.asf automatically generated from VICON data using
   VICON BodyBuilder and BodyLanguage model FoxedUp or BRILLIANT.MOD
:root
   order TX TY TZ RX RY RZ
   axis XYZ
   position 0 0 0  
   orientation 0 0 0 
:bonedata
  begin
     id 1 
     name lhipjoint
     direction 0.671379 -0.66392 0.329334 
     length 2.38647 
     axis 0 0 0  XYZ
  end
  begin
     id 2 
     name lfemur
     direction 0.34202 -0.939693 0  
     length 6.48179  
     axis 0 0 20  XYZ
    dof rx ry rz
    limits (-160.0 20.0)
           (-70.0 70.0)
           (-60.0 70.0)
  end
  begin
     id 3 
     name ltibia
     direction 0.34202 -0.939693 0   
     length 6.86524   
     axis 0 0 20   XYZ
    dof rx
    limits (-10.0 170.0)
  end
  begin
     id 4 
     name lfoot
     direction 0.204886 -0.562919 0.800715   
     length 1.73031   
     axis -90 7.62852e-016 20   XYZ
    dof rx rz
    limits (-45.0 90.0)
           (-70.0 20.0)
  end
  begin
     id 5 
     name ltoes
     direction 1.53548e-011 -4.21841e-011 1   
     length 0.828161   
     axis -90 7.62852e-016 20   XYZ
    dof rx
    limits (-90.0 20.0)
  end
  begin
     id 6 
     name rhipjoint
     direction -0.662732 -0.670855 0.332775   
     length 2.3618  
     axis 0 0 0  XYZ 
  end
  begin
     id 7 
     name rfemur
     direction -0.34202 -0.939693 0   
     length 6.3025   
     axis 0 0 -20   XYZ
    dof rx ry rz
    limits (-160.0 20.0)
           (-70.0 70.0)
           (-70.0 60.0)
  end
  begin
     id 8 
     name rtibia
     direction -0.34202 -0.939693 0   
     length 6.8732   
     axis 0 0 -20   XYZ
    dof rx
    limits (-10.0 170.0)
 end
 begin
     id 9 
     name rfoot
     direction -0.173856 -0.477665 0.861168   
     length 1.54784  
     axis -90 -7.62852e-016 -20   XYZ
    dof rx rz
    limits (-45.0 90.0)
           (-20.0 70.0)
  end
  begin
     id 10 
     name rtoes
     direction -1.53562e-011 -4.21802e-011 1   
     length 0.759618   
     axis -90 -7.62852e-016 -20   XYZ
    dof rx
    limits (-90.0 20.0)
  end
  begin
     id 11 
     name lowerback
     direction -0.0278357 0.999497 -0.0151789   
     length 1.97203   
     axis 0 0 0   XYZ
    dof rx ry rz
    limits (-20.0 45.0)
           (-30.0 30.0)
           (-30.0 30.0)
  end
  begin
     id 12 
     name upperback
     direction -0.00360622 0.997542 0.0699804   
     length 1.94709   
     axis 0 0 0   XYZ
    dof rx ry rz
    limits (-20.0 45.0)
           (-30.0 30.0)
           (-30.0 30.0)
  end
  begin
     id 13 
     name thorax
     direction 0.00907706 0.997048 0.0762461   
     length 1.95722   
     axis 0 0 0   XYZ
    dof rx ry rz
    limits (-20.0 45.0)
           (-30.0 30.0)
           (-30.0 30.0)
  end
  begin
     id 14 
     name lowerneck
     direction -0.0481835 0.99872 -0.0153927   
     length 1.63078   
     axis 0 0 0   XYZ
    dof rx ry rz
    limits (-20.0 45.0)
           (-30.0 30.0)
           (-30.0 30.0)
  end
  begin
     id 15 
     name upperneck
     direction 0.0859716 0.979226 -0.183644   
     length 1.62591   
     axis 0 0 0   XYZ
    dof rx ry rz
    limits (-20.0 45.0)
           (-30.0 30.0)
           (-30.0 30.0)
  end
  begin
     id 16
     name head
     direction 0.0324821 0.997629 -0.0606773  
     length 1.64811  
     axis 0 0 0   XYZ
    dof rx ry rz
    limits (-20.0 45.0)
           (-30.0 30.0)
           (-30.0 30.0)
  end
  begin
     id 17 
     name lclavicle
     direction 0.939609 0.311019 0.142835  
     length 3.70647  
     axis 0 0 0   XYZ
    dof ry rz
    limits (-20.0 10.0)
           (0.0 20.0)
  end
  begin
     id 18 
     name lhumerus
     direction 1 -4.48963e-011 -1.59838e-027   
     length 4.59207   
     axis 180 -30 -90   XYZ
    dof rx ry rz
    limits (-60.0 90.0)
           (-90.0 90.0)
           (-90.0 90.0)
  end
  begin
     id 19
     name lradius
     direction 1 -4.48957e-011 -1.3483e-026   
     length 2.98109   
     axis 180 -30 -90   XYZ
    dof rx
    limits (-10.0 170.0)
  end
  begin
     id 20
     name lwrist
     direction 1 -4.48954e-011 -3.11579e-026   
     length 1.49055   
     axis 2.00652e-014 90 90   XYZ
    dof ry
    limits (-180.0 0.0)
 end
  begin
     id 21 
     name lhand
     direction 1 -4.4911e-011 -6.23158e-026   
     length 0.480203   
     axis 3.97628e-014 90 90   XYZ
    dof rx rz
    limits (-90.0 90.0)
           (-45.0 45.0)
  end
  begin
     id 22 
     name lfingers
     direction 1 -4.48893e-011 -1.24632e-025   
     length 0.387152   
     axis 7.95256e-014 90 90   XYZ
    dof rx
    limits (0.0 90.0)
  end
  begin
     id 23
     name lthumb
     direction 0.707107 -6.35013e-011 0.707107   
     length 0.555875   
     axis -90 45 2.85299e-015   XYZ
    dof rx rz
    limits (-45.0 45.0)
           (-45.0 45.0)
  end
  begin
     id 24 
     name rclavicle
     direction -0.950396 0.30392 0.0661859   
     length 3.70894  
     axis 0 0 0   XYZ 
    dof ry rz
    limits (-10.0 20.0)
           (-20.0 0.0)
  end
  begin
     id 25 
     name rhumerus
     direction -1 -4.48957e-011 -2.96677e-027  
     length 4.76508   
     axis 180 30 90   XYZ
    dof rx ry rz
    limits (-90.0 60.0)
           (-90.0 90.0)
           (-90.0 90.0)
  end
  begin
     id 26 
     name rradius
     direction -1 -4.48974e-011 -1.44501e-026   
     length 2.78902   
     axis 180 30 90   XYZ
    dof rx
    limits (-10.0 170.0)
  end
  begin
     id 27 
     name rwrist
     direction -1 -4.48978e-011 -3.11579e-026   
     length 1.39451   
     axis 2.00652e-014 -90 -90   XYZ
    dof ry
    limits (-180.0 0.0)
  end
  begin
     id 28
     name rhand
     direction -1 -4.48956e-011 -6.23158e-026   
     length 0.721303   
     axis 3.97628e-014 -90 -90   XYZ
    dof rx rz
    limits (-90.0 90.0)
           (-45.0 45.0)
  end
  begin
     id 29
     name rfingers
     direction -1 -4.4899e-011 -1.24632e-025   
     length 0.581533   
     axis 7.95256e-014 -90 -90   XYZ
    dof rx
    limits (0.0 90.0)
  end
  begin
     id 30
     name rthumb
     direction -0.707107 -6.34911e-011 0.707107   
     length 0.834968   
     axis -90 -45 -2.85299e-015   XYZ
    dof rx rz
    limits (-45.0 45.0)
           (-45.0 45.0)
  end
:hierarchy
  begin
    root lhipjoint rhipjoint lowerback
    lhipjoint lfemur
    lfemur ltibia
    ltibia lfoot
    lfoot ltoes
    rhipjoint rfemur
    rfemur rtibia
    rtibia rfoot
    rfoot rtoes
    lowerback upperback
    upperback thorax
    thorax lowerneck lclavicle rclavicle
    lowerneck upperneck
    upperneck head
    lclavicle lhumerus
    lhumerus lradius
    lradius lwrist
    lwrist lhand lthumb
    lhand lfingers
    rclavicle rhumerus
    rhumerus rradius
    rradius rwrist
    rwrist rhand rthumb
    rhand rfingers
  end

#!OML:ASF I:\salsa\salsa 7_09\Patient 1\Session 1\dancerfemale.ASF
:FULLY-SPECIFIED
:DEGREES
801
root -13.2906 15.8847 -5.1359 -176.552 -262.584 181.616
lowerback 6.80227 2.75525 3.73107
upperback -3.68786 3.98374 -1.49058
thorax -7.33672 1.73678 -4.17372
lowerneck -0.646922 -5.25341 -6.58841
upperneck 8.51064 -7.41408 8.77024
head 3.20213 -3.54385 3.48292
rclavicle -1.28154e-014 -2.78299e-015
rhumerus 15.612 -3.05381 -94.9807
rradius 56.9921
rwrist 5.83574
rhand 13.1468 392.286
rfingers 7.12502
rthumb 38.1045 6.51544
lclavicle -1.28154e-014 -2.78299e-015
lhumerus -49.5071 -4.61266 90.0391
lradius 89.2821
lwrist -14.8359
lhand -17.018 4.13198
lfingers 7.12502
lthumb 9.21794 33.9105
rfemur -6.85712 -22.2163 22.7638
rtibia 46.5534
rfoot -8.56465 -3.22895
rtoes -17.7718
lfemur -27.0515 7.15828 -29.2653
ltibia 39.3562
lfoot -19.3582 -3.52678
ltoes -25.0411
802
root -13.4322 15.9157 -5.18695 -182.871 -259.087 174.83
lowerback 7.24248 3.69566 4.27367
upperback -4.04865 5.35631 -1.11311
thorax -7.83898 2.36931 -4.29336
lowerneck -0.373632 -5.31279 -7.19538
upperneck 8.80987 -7.54862 9.37913
head 3.301 -3.60703 3.76694
rclavicle 6.55492e-014 7.15625e-015
rhumerus 15.8059 -2.46505 -94.3201
rradius 56.1934
rwrist 5.60236
rhand 13.136 392.084
rfingers 7.12502
rthumb 38.0943 6.31011
lclavicle 6.55492e-014 7.15625e-015
lhumerus -50.1598 -3.95293 88.6953
lradius 89.388
lwrist -15.6793
lhand -15.6224 2.40953
lfingers 7.12502
lthumb 10.5644 32.124
rfemur -6.21687 -20.8535 23.8881
rtibia 43.7807
rfoot -9.57505 -1.67338
rtoes -17.9821
lfemur -28.8065 8.40995 -27.7655
ltibia 40.7054
lfoot -19.2609 -1.98972
ltoes -26.011
803
root -13.5648 15.9321 -5.23644 -184.409 -255.419 173.042
lowerback 7.36914 4.72776 4.67709
upperback -4.00463 6.79294 -1.01869
thorax -7.68948 3.06076 -4.59344
lowerneck -0.211407 -5.4137 -7.65717
upperneck 8.68496 -7.7231 9.9992
head 3.29182 -3.69219 4.02941
rclavicle -3.67752e-014 -7.55382e-015
rhumerus 16.719 -2.05055 -93.8592
rradius 55.5065
rwrist 5.62891
rhand 13.6748 392.07
rfingers 7.12502
rthumb 38.6028 6.43689
lclavicle -3.67752e-014 -7.55382e-015
lhumerus -49.4119 -3.75217 87.3425
lradius 89.327
lwrist -16.3702
lhand -14.0181 1.19555
lfingers 7.12502
lthumb 12.1116 30.825
rfemur -5.5539 -18.9152 24.4607
rtibia 41.4984
rfoot -10.6722 -0.0082494
rtoes -18.3064
lfemur -30.4241 9.72779 -26.5795
ltibia 42.4333
lfoot -18.9817 -0.490028
ltoes -26.9904
804
root -13.6869 15.9332 -5.28717 -185.3 -251.773 171.961
lowerback 7.78385 5.78023 4.78588
upperback -4.08035 8.26394 -0.693454
thorax -7.89114 3.77315 -4.53446
lowerneck -0.118747 -5.54315 -8.29057
upperneck 8.72209 -7.91361 10.2737
head 3.34027 -3.8003 4.20983
rclavicle -1.16463e-013 -1.68967e-014
rhumerus 17.5839 -1.40521 -92.9625
rradius 54.4493
rwrist 5.88203
rhand 14.0309 392.539
rfingers 7.12502
rthumb 38.9386 7.00149
lclavicle -1.16463e-013 -1.68967e-014
lhumerus -48.4745 -3.41156 86.427
lradius 89.196
lwrist -16.7665
lhand -12.0787 1.28339
lfingers 7.12502
lthumb 13.9811 30.7933
rfemur -5.01931 -16.864 24.9673
rtibia 39.6495
rfoot -11.6255 1.65745
rtoes -18.9027
lfemur -32.1532 11.0688 -25.3548
ltibia 44.6189
lfoot -18.469 1.02183
ltoes -28.5146
805
root -13.7981 15.9133 -5.3333 -187.236 -248.443 169.809
lowerback 8.16847 6.65862 5.35219
upperback -4.11147 9.56917 -0.202844
thorax -8.0124 4.38766 -4.53061
lowerneck -0.129129 -5.57941 -8.59134
upperneck 8.82929 -7.95296 10.147
head 3.38525 -3.83374 4.21642
rclavicle -2.44195e-014 -1.36167e-014
rhumerus 18.6313 -0.632003 -92.202
rradius 53.107
rwrist 6.40676
rhand 13.7435 392.941
rfingers 7.12502
rthumb 38.6676 7.3266
lclavicle -2.44195e-014 -1.36167e-014
lhumerus -47.2676 -2.80447 85.5037
lradius 88.9898
lwrist -16.6914
lhand -10.4436 2.07307
lfingers 7.12502
lthumb 15.5564 31.4674
rfemur -4.60095 -15.3417 25.8935
rtibia 38.2743
rfoot -12.2979 3.53177
rtoes -18.1185
lfemur -34.1372 12.3067 -23.5809
ltibia 47.3714
lfoot -17.8164 2.41146
ltoes -31.0664
806
root -13.8829 15.8784 -5.37531 -189.429 -245.56 167.349
lowerback 8.27 7.38495 6.09672
upperback -4.09903 10.6924 0.452505
thorax -7.94208 4.92084 -4.38324
lowerneck 0.0420093 -5.6307 -8.60304
upperneck 8.74092 -7.98318 9.56572
head 3.31269 -3.87749 4.043
rclavicle 3.68093e-014 6.26172e-015
rhumerus 19.6774 -0.029523 -91.6708
rradius 51.9379
rwrist 7.01109
rhand 13.594 393.023
rfingers 7.12502
rthumb 38.5266 7.36916
lclavicle 3.68093e-014 6.26172e-015
lhumerus -46.1954 -2.01774 84.6155
lradius 88.9669
lwrist -16.2953
lhand -9.64828 3.15701
lfingers 7.12502
lthumb 16.3223 32.4901
rfemur -4.18582 -14.5871 26.958
rtibia 37.1348
rfoot -12.8481 5.88144
rtoes -17.5111
lfemur -36.1503 13.1966 -21.473
ltibia 50.3664
lfoot -17.3425 3.668
ltoes -32.4998
807
root -13.9421 15.798 -5.41902 -191.742 -243.36 164.774
lowerback 8.12737 7.85199 7.0332
upperback -4.00468 11.4745 1.18521
thorax -7.6593 5.29638 -4.16412
lowerneck 0.296035 -5.71249 -8.35285
upperneck 8.50813 -8.02096 8.47879
head 3.15469 -3.93664 3.67691
rclavicle -1.46421e-014 -2.02609e-015
rhumerus 20.6803 0.3974 -91.4712
rradius 50.8681
rwrist 7.42711
rhand 13.5341 392.91
rfingers 7.12502
rthumb 38.4701 7.24046
lclavicle -1.46421e-014 -2.02609e-015
lhumerus -45.5678 -1.08685 83.6124
lradius 89.3195
lwrist -15.8762
lhand -9.81652 3.87897
lfingers 7.12502
lthumb 16.1603 33.2253
rfemur -3.79443 -14.6031 28.0726
rtibia 36.2662
rfoot -13.1399 7.86067
rtoes -16.0774
lfemur -38.1734 13.3972 -19.2358
ltibia 53.3895
lfoot -17.0617 4.95977
ltoes -31.7756
808
root -13.9802 15.7476 -5.45601 -194.314 -241.784 161.936
lowerback 7.90763 7.98186 8.17414
upperback -3.90959 11.8247 1.98427
thorax -7.3544 5.45777 -3.91839
lowerneck 0.646908 -5.7465 -7.97361
upperneck 8.26213 -7.97716 7.02145
head 2.95098 -3.9609 3.18822
rclavicle 7.21091e-014 1.53064e-014
rhumerus 21.7698 0.166821 -92.375
rradius 49.427
rwrist 8.648
rhand 13.8656 393.304
rfingers 7.12502
rthumb 38.7828 7.72224
lclavicle 7.21091e-014 1.53064e-014
lhumerus -45.5388 0.241122 82.4122
lradius 89.9193
lwrist -15.6066
lhand -10.8588 4.01237
lfingers 7.12502
lthumb 15.1565 33.4373
rfemur -3.31127 -15.053 29.3753
rtibia 35.439
rfoot -13.5249 9.40157
rtoes -15.1247
lfemur -39.8206 12.9478 -16.749
ltibia 55.8339
lfoot -17.0336 6.85437
ltoes -29.3397
809
root -14.0018 15.7115 -5.48399 -196.198 -240.645 159.911
lowerback 7.63836 7.9293 8.83198
upperback -3.82942 11.8673 2.76243
thorax -7.15913 5.48863 -3.41262
lowerneck 1.24671 -5.71366 -7.62032
upperneck 7.77255 -7.83199 5.30593
head 2.87994 -3.95138 2.89807
rclavicle 4.12727e-014 3.08116e-014
rhumerus 22.7466 0.0496233 -93.4651
rradius 47.6875
rwrist 9.68601
rhand 14.1465 393.891
rfingers 7.12502
rthumb 39.0477 8.38471
lclavicle 4.12727e-014 3.08116e-014
lhumerus -46.1297 1.89161 81.1713
lradius 90.6885
lwrist -15.4062
lhand -12.2993 4.05937
lfingers 7.12502
lthumb 13.7686 33.5838
rfemur -2.77425 -15.4333 30.3447
rtibia 34.7352
rfoot -14.3372 10.6616
rtoes -15.2155
lfemur -41.0225 12.044 -14.4765
ltibia 57.6201
lfoot -17.7019 9.7274
ltoes -25.895
810
root -14.0083 15.6839 -5.50313 -197.479 -239.947 158.868
lowerback 7.57932 7.77222 8.83085
upperback -3.66575 11.7044 3.45007
thorax -7.11748 5.43994 -2.67656
lowerneck 1.7553 -5.65736 -7.34577
upperneck 7.57261 -7.70364 4.07099
head 2.6268 -3.91219 2.44703
rclavicle -9.2733e-014 -3.91606e-014
rhumerus 23.1198 1.91123 -92.5674
rradius 46.4094
rwrist 7.82598
rhand 12.923 393.243
rfingers 7.12502
rthumb 37.8932 7.41518
lclavicle -9.2733e-014 -3.91606e-014
lhumerus -47.0802 3.47798 79.9596
lradius 91.6773
lwrist -15.1214
lhand -13.6711 4.2679
lfingers 7.12502
lthumb 12.4462 33.8773
rfemur -1.84659 -15.4677 30.8059
rtibia 33.976
rfoot -15.1475 11.2201
rtoes -15.2358
lfemur -41.3429 10.663 -12.4856
ltibia 58.3044
lfoot -18.5592 12.6357
ltoes -21.5325
811
root -14.026 15.6387 -5.52638 -199.738 -239.185 156.583
lowerback 7.91107 7.51027 9.42008
upperback -3.67587 11.5504 4.21732
thorax -7.39792 5.34824 -2.23499
lowerneck 1.96432 -5.55728 -7.21384
upperneck 7.62779 -7.52557 3.21388
head 2.54414 -3.83907 2.14675
rclavicle -5.72376e-014 -3.29983e-014
rhumerus 23.413 0.634807 -94.7842
rradius 45.8221
rwrist 9.72702
rhand 13.2475 393.732
rfingers 7.12502
rthumb 38.1995 7.98688
lclavicle -5.72376e-014 -3.29983e-014
lhumerus -48.2183 4.86787 78.6796
lradius 92.8608
lwrist -14.5392
lhand -14.7919 4.5826
lfingers 7.12502
lthumb 11.3655 34.2546
rfemur -1.1162 -14.6563 32.3632
rtibia 33.099
rfoot -15.4557 10.6659
rtoes -14.8808
lfemur -41.6949 9.13542 -9.49806
ltibia 58.2653
lfoot -18.7745 14.2963
ltoes -17.5639
812
root -13.968 15.6464 -5.51309 -197.617 -239.885 160.119
lowerback 7.85273 7.27633 6.69838
upperback -3.24287 10.8817 4.23991
thorax -7.42675 5.15879 -0.710962
lowerneck 2.17474 -5.43878 -7.18665
upperneck 7.70381 -7.34003 2.63116
head 2.48991 -3.75856 1.95861
rclavicle -1.19892e-013 -2.94201e-014
rhumerus 23.4598 0.909462 -95.2711
rradius 45.4164
rwrist 9.59204
rhand 12.7368 393.807
rfingers 7.12502
rthumb 37.7172 7.9311
lclavicle -1.19892e-013 -2.94201e-014
lhumerus -49.3253 6.23316 77.4452
lradius 94.0483
lwrist -13.8662
lhand -15.4172 4.84121
lfingers 7.12502
lthumb 10.7623 34.5455
rfemur 0.999505 -14.663 29.8142
rtibia 31.96
rfoot -16.575 11.005
rtoes -14.8337
lfemur -40.1394 6.75601 -10.0178
ltibia 57.1469
lfoot -19.1514 15.0388
ltoes -15.3937
813
root -13.8822 15.6573 -5.50546 -196.556 -240.368 161.937
lowerback 7.38822 7.02938 5.12774
upperback -3.00981 10.328 4.33592
thorax -7.21616 4.97848 0.347393
lowerneck 2.47892 -5.31858 -7.10902
upperneck 7.70866 -7.17081 2.2302
head 2.40407 -3.68023 1.82507
rclavicle 1.25533e-013 -1.63003e-014
rhumerus 22.9937 1.18879 -95.4928
rradius 45.6642
rwrist 9.22787
rhand 12.3085 393.762
rfingers 7.12502
rthumb 37.3125 7.77917
lclavicle 1.25533e-013 -1.63003e-014
lhumerus -50.2238 7.40582 76.2701
lradius 95.0888
lwrist -13.3409
lhand -15.4524 4.88234
lfingers 7.12502
lthumb 10.7284 34.5884
rfemur 2.93707 -14.4264 28.3917
rtibia 30.3216
rfoot -17.3254 11.0834
rtoes -14.7174
lfemur -39.1403 4.48063 -9.60289
ltibia 55.8561
lfoot -18.8983 15.1664
ltoes -14.091
814
root -13.7899 15.6643 -5.50876 -196.896 -240.617 161.676
lowerback 6.82299 6.79284 4.81906
upperback -3.06551 9.95958 4.52688
thorax -7.04506 4.82934 0.819189
lowerneck 3.072 -5.22248 -7.04487
upperneck 7.50505 -7.07625 2.16173
head 2.21931 -3.63156 1.81125
rclavicle -1.97045e-014 -2.50469e-014
rhumerus 22.1437 0.999813 -95.8459
rradius 46.1917
rwrist 9.16027
rhand 11.877 393.923
rfingers 7.12502
rthumb 36.9044 7.83369
lclavicle -1.97045e-014 -2.50469e-014
lhumerus -50.9119 8.10427 75.2043
lradius 95.9884
lwrist -12.9156
lhand -15.3892 4.67049
lfingers 7.12502
lthumb 10.7893 34.3734
rfemur 4.44882 -13.5114 28.5261
rtibia 28.3428
rfoot -17.7655 10.2924
rtoes -16.0398
lfemur -38.7284 2.42198 -8.02581
ltibia 54.3632
lfoot -18.4006 15.1463
ltoes -11.4763
